<?xml version="1.0" standalone="no"?><!DOCTYPE svg PUBLIC "-//W3C//DTD SVG 1.1//EN" "http://www.w3.org/Graphics/SVG/1.1/DTD/svg11.dtd"><svg t="1561948851490" class="icon" viewBox="0 0 1024 1024" version="1.1" xmlns="http://www.w3.org/2000/svg" p-id="1809" xmlns:xlink="http://www.w3.org/1999/xlink" width="200" height="200"><defs><style type="text/css"></style></defs><path d="M790.909779 187.637518 233.088174 187.637518c-93.220125 0-168.785148 75.575256-168.785148 168.786171l0 311.152623c0 93.221148 75.565023 168.787194 168.785148 168.787194l557.821605 0c93.220125 0 168.785148-75.56707 168.785148-168.787194L959.694927 356.422665C959.69595 263.21175 884.129904 187.637518 790.909779 187.637518zM363.799168 448.77298 249.810021 448.77298l0-93.76964L363.799168 355.00334 363.799168 448.77298zM511.999488 683.199127 398.010341 683.199127l0-93.770663 113.989147 0L511.999488 683.199127zM773.255701 483.159138 659.26553 483.159138l0-93.76964 113.990171 0L773.255701 483.159138z" p-id="1810" fill="#ffffff"></path></svg>