<?xml version="1.0" standalone="no"?><!DOCTYPE svg PUBLIC "-//W3C//DTD SVG 1.1//EN" "http://www.w3.org/Graphics/SVG/1.1/DTD/svg11.dtd"><svg t="1562116215159" class="icon" viewBox="0 0 1024 1024" version="1.1" xmlns="http://www.w3.org/2000/svg" p-id="2189" xmlns:xlink="http://www.w3.org/1999/xlink" width="200" height="200"><defs><style type="text/css"></style></defs><path d="M 802.133 153.6 h -238.933 c -20.48 0 -34.1333 13.6533 -34.1333 34.1333 V 477.867 c 0 10.24 6.82667 17.0667 17.0667 17.0667 h 290.133 c 20.48 0 34.1333 -13.6533 34.1333 -34.1333 v -238.933 c 0 -37.5467 -30.72 -68.2667 -68.2667 -68.2667 Z M 153.6 221.867 v 238.933 c 0 20.48 13.6533 34.1333 34.1333 34.1333 H 477.867 c 10.24 0 17.0667 -6.82667 17.0667 -17.0667 V 187.733 c 0 -20.48 -13.6533 -34.1333 -34.1333 -34.1333 h -238.933 c -37.5467 0 -68.2667 30.72 -68.2667 68.2667 Z M 153.6 802.133 c 0 37.5467 30.72 68.2667 68.2667 68.2667 h 238.933 c 20.48 0 34.1333 -13.6533 34.1333 -34.1333 V 546.133 c 0 -10.24 -6.82667 -17.0667 -17.0667 -17.0667 H 187.733 c -20.48 0 -34.1333 13.6533 -34.1333 34.1333 v 238.933 Z M 563.2 870.4 h 238.933 c 37.5467 0 68.2667 -30.72 68.2667 -68.2667 v -238.933 c 0 -20.48 -13.6533 -34.1333 -34.1333 -34.1333 H 546.133 c -10.24 0 -17.0667 6.82667 -17.0667 17.0667 v 290.133 c 0 20.48 13.6533 34.1333 34.1333 34.1333 Z" p-id="2190" fill="#ffffff"></path></svg>