<?xml version="1.0" standalone="no"?><!DOCTYPE svg PUBLIC "-//W3C//DTD SVG 1.1//EN" "http://www.w3.org/Graphics/SVG/1.1/DTD/svg11.dtd"><svg t="1562116383576" class="icon" viewBox="0 0 1024 1024" version="1.1" xmlns="http://www.w3.org/2000/svg" p-id="2362" xmlns:xlink="http://www.w3.org/1999/xlink" width="200" height="200"><defs><style type="text/css"></style></defs><path d="M505.8 850.6c-11 0-21.9-2.9-31.5-8.4l-237.5-137c-19.4-11.2-31.5-32.1-31.5-54.6v-274c0-22.4 12.1-43.4 31.5-54.6l237.5-137c19.1-11.1 43.8-11 63 0l237.5 137c19.4 11.2 31.5 32.1 31.5 54.6v274c0 22.5-12.1 43.4-31.5 54.6l-237.5 137c-9.6 5.4-20.4 8.4-31.5 8.4z m0-634.4c-4.1 0-8.1 1.1-11.7 3.1l-237.5 137c-7.2 4.2-11.7 11.9-11.7 20.2v274c0 8.3 4.5 16.1 11.7 20.2l237.5 137c7.1 4.1 16.3 4.1 23.3 0l237.5-137c7.2-4.2 11.7-11.9 11.7-20.2v-274c0-8.3-4.5-16.1-11.7-20.2l-237.5-137c-3.5-2-7.5-3.1-11.6-3.1z" p-id="2363" fill="#ffffff"></path><path d="M506.1 527.2c-10.7 0-21.3-2.7-31-8.2L287.7 413.1c-9.5-5.4-12.9-17.5-7.5-27s17.5-12.9 27-7.5l187.4 105.8c7.1 4 15.6 4 22.7 0.1l193.7-106c9.6-5.3 21.7-1.7 26.9 7.9 5.3 9.6 1.7 21.6-7.9 26.9L536.4 519.4c-9.5 5.2-19.9 7.8-30.3 7.8z" p-id="2364" fill="#ffffff"></path><path d="M505.8 770.9c-11 0-19.9-8.9-19.8-19.9l0.8-213.3c0.1-23 12.7-44.1 32.9-55.1L711 378.5c9.6-5.2 21.7-1.7 26.9 7.9 5.2 9.6 1.7 21.7-8 26.9L538.6 517.4c-7.5 4.1-12.1 11.9-12.2 20.4l-0.8 213.3c0 10.9-8.9 19.8-19.8 19.8z" p-id="2365" fill="#ffffff"></path><path d="M505.8 770.9c-10.9 0-19.8-8.8-19.8-19.7l-0.8-213.3c0-8.6-4.7-16.4-12.2-20.5L287.8 413.2c-9.5-5.4-12.9-17.5-7.6-27 5.4-9.5 17.5-13 27-7.6l185.1 104.1c20 10.9 32.6 32 32.6 55l0.8 213.2c0 11-8.9 19.9-19.9 20 0.1 0 0 0 0 0z" p-id="2366" fill="#ffffff"></path></svg>