<?xml version="1.0" standalone="no"?><!DOCTYPE svg PUBLIC "-//W3C//DTD SVG 1.1//EN" "http://www.w3.org/Graphics/SVG/1.1/DTD/svg11.dtd"><svg t="1561887363573" class="icon" viewBox="0 0 1024 1024" version="1.1" xmlns="http://www.w3.org/2000/svg" p-id="2426" xmlns:xlink="http://www.w3.org/1999/xlink" width="200" height="200"><defs><style type="text/css"></style></defs><path d="M790.908756 187.637518 233.088174 187.637518c-93.220125 0-168.785148 75.575256-168.785148 168.786171l0 311.152623c0 93.221148 75.566046 168.787194 168.785148 168.787194l557.820582 0c93.221148 0 168.786171-75.56707 168.786171-168.787194L959.694927 356.422665C959.69595 263.21175 884.129904 187.637518 790.908756 187.637518zM811.751457 561.682539 661.719418 561.682539l0 171.128519-74.136487 0L587.582931 561.682539 210.488457 561.682539l0-73.843822 114.538663 0 0-186.743148 72.964802 0 0 186.743148L811.751457 487.838717 811.751457 561.682539z" p-id="2427" fill="#ffffff"></path></svg>