<?xml version="1.0" standalone="no"?><!DOCTYPE svg PUBLIC "-//W3C//DTD SVG 1.1//EN" "http://www.w3.org/Graphics/SVG/1.1/DTD/svg11.dtd"><svg t="1561896325835" class="icon" viewBox="0 0 1024 1024" version="1.1" xmlns="http://www.w3.org/2000/svg" p-id="31563" xmlns:xlink="http://www.w3.org/1999/xlink" width="200" height="200"><defs><style type="text/css"></style></defs><path d="M790.908756 187.637518 233.088174 187.637518c-93.220125 0-168.785148 75.575256-168.785148 168.786171l0 311.152623c0 93.221148 75.565023 168.787194 168.785148 168.787194l557.820582 0c93.221148 0 168.786171-75.56707 168.786171-168.787194L959.694927 356.422665C959.69595 263.21175 884.129904 187.637518 790.908756 187.637518zM773.217838 691.786713 246.93453 691.786713 246.93453 299.126728l526.284331 0L773.218862 691.786713z" p-id="31564" fill="#ffffff"></path><path d="M272.940834 341.396437 272.940834 663.464667 595.018274 663.464667Z" p-id="31565" fill="#ffffff"></path><path d="M543.079344 573.942771 632.599194 663.464667 747.211535 663.464667 747.211535 369.81058Z" p-id="31566" fill="#ffffff"></path><path d="M747.211535 332.22966 747.211535 327.449797 296.565904 327.449797 524.288372 555.153846Z" p-id="31567" fill="#ffffff"></path></svg>