{
  "accessors": [
    {
      "name": "Obj3d66_1016156_138_381_1_0_positions",
      "componentType": 5126,
      "count": 339,
      "min": [
        -3.509200096130371,
        -1.9864000082015991,
        0.4332999885082245
      ],
      "max": [
        3.505199909210205,
        1.9943000078201294,
        4.180600166320801
      ],
      "type": "VEC3",
      "bufferView": 0,
      "byteOffset": 0
    },
    {
      "name": "Obj3d66_1016156_138_381_1_0_normals",
      "componentType": 5126,
      "count": 339,
      "min": [
        -1,
        -1,
        -1
      ],
      "max": [
        1,
        1,
        1
      ],
      "type": "VEC3",
      "bufferView": 1,
      "byteOffset": 0
    },
    {
      "name": "Obj3d66_1016156_138_381_1_0_texcoords",
      "componentType": 5126,
      "count": 339,
      "min": [
        -0.6690999865531921,
        -0.6690999865531921
      ],
      "max": [
        1.669100046157837,
        1.669100046157837
      ],
      "type": "VEC2",
      "bufferView": 2,
      "byteOffset": 0
    },
    {
      "name": "Obj3d66_1016156_138_381_1_0_indices",
      "componentType": 5123,
      "count": 564,
      "min": [
        0
      ],
      "max": [
        338
      ],
      "type": "SCALAR",
      "bufferView": 3,
      "byteOffset": 0
    },
    {
      "name": "Obj3d66_1016156_138_381_1_1_positions",
      "componentType": 5126,
      "count": 20,
      "min": [
        -2.7699999809265137,
        -1.5187000036239624,
        1.233299970626831
      ],
      "max": [
        2.7699999809265137,
        1.5190000534057617,
        2.378000020980835
      ],
      "type": "VEC3",
      "bufferView": 0,
      "byteOffset": 4068
    },
    {
      "name": "Obj3d66_1016156_138_381_1_1_normals",
      "componentType": 5126,
      "count": 20,
      "min": [
        0,
        -1,
        0
      ],
      "max": [
        0,
        1,
        0
      ],
      "type": "VEC3",
      "bufferView": 1,
      "byteOffset": 4068
    },
    {
      "name": "Obj3d66_1016156_138_381_1_1_texcoords",
      "componentType": 5126,
      "count": 20,
      "min": [
        0.0005000000237487257,
        0.0005000000237487257
      ],
      "max": [
        0.9994999766349792,
        0.9994999766349792
      ],
      "type": "VEC2",
      "bufferView": 2,
      "byteOffset": 2712
    },
    {
      "name": "Obj3d66_1016156_138_381_1_1_indices",
      "componentType": 5123,
      "count": 30,
      "min": [
        0
      ],
      "max": [
        19
      ],
      "type": "SCALAR",
      "bufferView": 3,
      "byteOffset": 1128
    },
    {
      "name": "Obj3d66_1016156_138_381_1_2_positions",
      "componentType": 5126,
      "count": 159,
      "min": [
        -3.2850000858306885,
        -1.6563999652862549,
        -0.0005000000237487257
      ],
      "max": [
        3.2850000858306885,
        1.6639000177383423,
        0.4332999885082245
      ],
      "type": "VEC3",
      "bufferView": 0,
      "byteOffset": 4308
    },
    {
      "name": "Obj3d66_1016156_138_381_1_2_normals",
      "componentType": 5126,
      "count": 159,
      "min": [
        -1,
        -1,
        -1
      ],
      "max": [
        1,
        1,
        0
      ],
      "type": "VEC3",
      "bufferView": 1,
      "byteOffset": 4308
    },
    {
      "name": "Obj3d66_1016156_138_381_1_2_texcoords",
      "componentType": 5126,
      "count": 159,
      "min": [
        -6.070000171661377,
        -6.070000171661377
      ],
      "max": [
        7.070000171661377,
        7.070000171661377
      ],
      "type": "VEC2",
      "bufferView": 2,
      "byteOffset": 2872
    },
    {
      "name": "Obj3d66_1016156_138_381_1_2_indices",
      "componentType": 5123,
      "count": 246,
      "min": [
        0
      ],
      "max": [
        158
      ],
      "type": "SCALAR",
      "bufferView": 3,
      "byteOffset": 1188
    },
    {
      "name": "Obj3d66_1016156_138_381_1_3_positions",
      "componentType": 5126,
      "count": 8,
      "min": [
        -2.790299892425537,
        -1.506100058555603,
        0
      ],
      "max": [
        2.9070000648498535,
        -1.506100058555603,
        2.0471999645233154
      ],
      "type": "VEC3",
      "bufferView": 0,
      "byteOffset": 6216
    },
    {
      "name": "Obj3d66_1016156_138_381_1_3_normals",
      "componentType": 5126,
      "count": 8,
      "min": [
        0,
        -1,
        0
      ],
      "max": [
        0,
        -1,
        0
      ],
      "type": "VEC3",
      "bufferView": 1,
      "byteOffset": 6216
    },
    {
      "name": "Obj3d66_1016156_138_381_1_3_texcoords",
      "componentType": 5126,
      "count": 8,
      "min": [
        0.0005000000237487257,
        0.0005000000237487257
      ],
      "max": [
        0.9994999766349792,
        0.9994999766349792
      ],
      "type": "VEC2",
      "bufferView": 2,
      "byteOffset": 4144
    },
    {
      "name": "Obj3d66_1016156_138_381_1_3_indices",
      "componentType": 5123,
      "count": 12,
      "min": [
        0
      ],
      "max": [
        7
      ],
      "type": "SCALAR",
      "bufferView": 3,
      "byteOffset": 1680
    },
    {
      "name": "Obj3d66_1016156_138_381_1_4_positions",
      "componentType": 5126,
      "count": 89,
      "min": [
        -3.533799886703491,
        -2.0044000148773193,
        2.8053998947143555
      ],
      "max": [
        3.533799886703491,
        2.0044000148773193,
        4.288899898529053
      ],
      "type": "VEC3",
      "bufferView": 0,
      "byteOffset": 6312
    },
    {
      "name": "Obj3d66_1016156_138_381_1_4_normals",
      "componentType": 5126,
      "count": 89,
      "min": [
        -1,
        -1,
        -0.8237909078598022
      ],
      "max": [
        1,
        1,
        0.9222909808158875
      ],
      "type": "VEC3",
      "bufferView": 1,
      "byteOffset": 6312
    },
    {
      "name": "Obj3d66_1016156_138_381_1_4_texcoords",
      "componentType": 5126,
      "count": 89,
      "min": [
        -3.033799886703491,
        -3.033799886703491
      ],
      "max": [
        4.03380012512207,
        4.03380012512207
      ],
      "type": "VEC2",
      "bufferView": 2,
      "byteOffset": 4208
    },
    {
      "name": "Obj3d66_1016156_138_381_1_4_indices",
      "componentType": 5123,
      "count": 162,
      "min": [
        0
      ],
      "max": [
        88
      ],
      "type": "SCALAR",
      "bufferView": 3,
      "byteOffset": 1704
    }
  ],
  "asset": {
    "generator": "obj2gltf",
    "version": "2.0"
  },
  "buffers": [
    {
      "name": "MF",
      "byteLength": 205060,
      "uri": "data:application/octet-stream;base64,"
    }
  ],
  "bufferViews": [
    {
      "name": "bufferView_0",
      "buffer": 0,
      "byteLength": 7380,
      "byteOffset": 0,
      "byteStride": 12,
      "target": 34962
    },
    {
      "name": "bufferView_1",
      "buffer": 0,
      "byteLength": 7380,
      "byteOffset": 7380,
      "byteStride": 12,
      "target": 34962
    },
    {
      "name": "bufferView_2",
      "buffer": 0,
      "byteLength": 4920,
      "byteOffset": 14760,
      "byteStride": 8,
      "target": 34962
    },
    {
      "name": "bufferView_3",
      "buffer": 0,
      "byteLength": 2028,
      "byteOffset": 19680,
      "target": 34963
    },
    {
      "buffer": 0,
      "byteOffset": 21708,
      "byteLength": 12409
    },
    {
      "buffer": 0,
      "byteOffset": 34117,
      "byteLength": 30177
    },
    {
      "buffer": 0,
      "byteOffset": 64294,
      "byteLength": 14148
    },
    {
      "buffer": 0,
      "byteOffset": 78442,
      "byteLength": 32331
    },
    {
      "buffer": 0,
      "byteOffset": 110773,
      "byteLength": 94286
    }
  ],
  "images": [
    {
      "name": "WUD146",
      "mimeType": "image/jpeg",
      "bufferView": 4
    },
    {
      "name": "chf_26",
      "mimeType": "image/jpeg",
      "bufferView": 5
    },
    {
      "name": "QIM099",
      "mimeType": "image/jpeg",
      "bufferView": 6
    },
    {
      "name": "MEN035",
      "mimeType": "image/jpeg",
      "bufferView": 7
    },
    {
      "name": "wad_087",
      "mimeType": "image/jpeg",
      "bufferView": 8
    }
  ],
  "materials": [
    {
      "name": "Material__44",
      "pbrMetallicRoughness": {
        "baseColorTexture": {
          "index": 0
        },
        "baseColorFactor": [
          1,
          1,
          1,
          1
        ],
        "metallicFactor": 0,
        "roughnessFactor": 0.99
      },
      "emissiveFactor": [
        0,
        0,
        0
      ],
      "alphaMode": "OPAQUE",
      "doubleSided": true
    },
    {
      "name": "chf_26",
      "pbrMetallicRoughness": {
        "baseColorTexture": {
          "index": 1
        },
        "baseColorFactor": [
          1,
          1,
          1,
          1
        ],
        "metallicFactor": 0,
        "roughnessFactor": 0.99
      },
      "emissiveFactor": [
        0,
        0,
        0
      ],
      "alphaMode": "OPAQUE",
      "doubleSided": true
    },
    {
      "name": "QIM099",
      "pbrMetallicRoughness": {
        "baseColorTexture": {
          "index": 2
        },
        "baseColorFactor": [
          1,
          1,
          1,
          1
        ],
        "metallicFactor": 0,
        "roughnessFactor": 0.99
      },
      "emissiveFactor": [
        0,
        0,
        0
      ],
      "alphaMode": "OPAQUE",
      "doubleSided": true
    },
    {
      "name": "MEN035",
      "pbrMetallicRoughness": {
        "baseColorTexture": {
          "index": 3
        },
        "baseColorFactor": [
          1,
          1,
          1,
          1
        ],
        "metallicFactor": 0,
        "roughnessFactor": 0.99
      },
      "emissiveFactor": [
        0,
        0,
        0
      ],
      "alphaMode": "OPAQUE",
      "doubleSided": true
    },
    {
      "name": "Material__32",
      "pbrMetallicRoughness": {
        "baseColorTexture": {
          "index": 4
        },
        "baseColorFactor": [
          1,
          1,
          1,
          1
        ],
        "metallicFactor": 0,
        "roughnessFactor": 0.99
      },
      "emissiveFactor": [
        0,
        0,
        0
      ],
      "alphaMode": "OPAQUE",
      "doubleSided": true
    }
  ],
  "meshes": [
    {
      "name": "Obj3d66_1016156_138_381_1",
      "primitives": [
        {
          "attributes": {
            "POSITION": 0,
            "NORMAL": 1,
            "TEXCOORD_0": 2
          },
          "indices": 3,
          "material": 0,
          "mode": 4
        },
        {
          "attributes": {
            "POSITION": 4,
            "NORMAL": 5,
            "TEXCOORD_0": 6
          },
          "indices": 7,
          "material": 1,
          "mode": 4
        },
        {
          "attributes": {
            "POSITION": 8,
            "NORMAL": 9,
            "TEXCOORD_0": 10
          },
          "indices": 11,
          "material": 2,
          "mode": 4
        },
        {
          "attributes": {
            "POSITION": 12,
            "NORMAL": 13,
            "TEXCOORD_0": 14
          },
          "indices": 15,
          "material": 3,
          "mode": 4
        },
        {
          "attributes": {
            "POSITION": 16,
            "NORMAL": 17,
            "TEXCOORD_0": 18
          },
          "indices": 19,
          "material": 4,
          "mode": 4
        }
      ]
    }
  ],
  "nodes": [
    {
      "name": "Obj3d66_1016156_138_381",
      "mesh": 0
    }
  ],
  "samplers": [
    {
      "magFilter": 9729,
      "minFilter": 9986,
      "wrapS": 10497,
      "wrapT": 10497
    }
  ],
  "scene": 0,
  "scenes": [
    {
      "nodes": [
        0
      ]
    }
  ],
  "textures": [
    {
      "name": "WUD146",
      "sampler": 0,
      "source": 0
    },
    {
      "name": "chf_26",
      "sampler": 0,
      "source": 1
    },
    {
      "name": "QIM099",
      "sampler": 0,
      "source": 2
    },
    {
      "name": "MEN035",
      "sampler": 0,
      "source": 3
    },
    {
      "name": "wad_087",
      "sampler": 0,
      "source": 4
    }
  ]
}
