<?xml version="1.0" standalone="no"?><!DOCTYPE svg PUBLIC "-//W3C//DTD SVG 1.1//EN" "http://www.w3.org/Graphics/SVG/1.1/DTD/svg11.dtd"><svg t="1557715323388" class="icon" style="" viewBox="0 0 1024 1024" version="1.1" xmlns="http://www.w3.org/2000/svg" p-id="2772" xmlns:xlink="http://www.w3.org/1999/xlink" width="200" height="200"><defs><style type="text/css"></style></defs><path d="M494.087965 0.455158C317.52648 8.131744 169.112478 151.428022 153.759305 330.548369c-10.235448 133.06083 51.177242 250.768486 150.972864 319.857764s156.090588 186.796934 156.090589 307.063452v15.353173c0 28.147483 23.029759 51.177242 51.177242 51.177242 28.147483 0 51.177242-23.029759 51.177242-51.177242v-15.353173c0-125.384243 63.971553-237.974176 163.767175-312.181177 87.001312-66.530415 143.296278-168.884899 143.296278-286.592556C870.240695 153.986884 701.355796-9.780291 494.087965 0.455158zM512 486.638958c-71.648139 0-127.943105-56.294966-127.943105-127.943106s56.294966-127.943105 127.943105-127.943105 127.943105 56.294966 127.943105 127.943105-56.294966 127.943105-127.943105 127.943106z" p-id="2773" fill="#ffffff"></path></svg>