<?xml version="1.0" standalone="no"?><!DOCTYPE svg PUBLIC "-//W3C//DTD SVG 1.1//EN" "http://www.w3.org/Graphics/SVG/1.1/DTD/svg11.dtd"><svg t="1557715334973" class="icon" style="" viewBox="0 0 1024 1024" version="1.1" xmlns="http://www.w3.org/2000/svg" p-id="2951" xmlns:xlink="http://www.w3.org/1999/xlink" width="200" height="200"><defs><style type="text/css"></style></defs><path d="M511.3 342.2c-44.1 0-80 35.9-80 80s35.9 80 80 80 80-35.9 80-80-35.8-80-80-80z" p-id="2952" fill="#ffffff"></path><path d="M728.5 133.6c-2.2-1.6-4.5-3-6.8-4.5-1.2-1.1-2.5-2-3.9-2.9-3-1.9-6-3.7-9-5.5l-4.9-2.9c-23.9-14.2-49.3-25.7-75.4-34.2l-3.9-1.2c-7.4-2.3-15-4.5-23.5-6.6l-3.9-0.9c-9.2-2.1-17.6-3.8-25-5-0.4-0.1-1.2-0.2-1.7-0.3-9.1-1.4-18.6-2.5-28.1-3.3l-4.2-0.3c-7.5-0.5-15.1-0.8-22.8-0.9-2.8-0.2-5.5-0.1-8.3 0h-1.2l-9.9 0.3c-4.9 0.2-9.7 0.5-14.7 0.9l-5.3 0.5c-6.3 0.6-12.6 1.3-19.6 2.3-12.8 1.9-24.1 4-34.6 6.6-1.7 0.4-3.3 0.9-5 1.6-16 4.1-31.3 9.1-45.7 14.8-33 13.2-64 31.1-92.3 53.2-1.4 0.8-2.7 1.7-3.9 2.7-89.8 72.1-141.4 179.5-141.4 294.6 0 89.8 32.2 176.9 90.6 245.2 0.3 0.4 0.6 0.7 1 1.1 2.5 2.7 24.1 25.9 37.1 37.5l223.1 223.1c7.1 7.1 16.5 10.7 25.8 10.7s18.7-3.6 25.8-10.7L760 726.4c13.1-11.6 34.7-34.8 37.1-37.5 0.3-0.4 0.7-0.7 1-1.1 58.4-68.3 90.6-155.4 90.6-245.2 0.2-122.7-59.8-238.2-160.2-309zM511.3 575.4c-84.4 0-153.1-68.7-153.1-153.1 0-84.4 68.7-153.1 153.1-153.1 84.4 0 153.1 68.7 153.1 153.1 0.1 84.4-68.6 153.1-153.1 153.1z" p-id="2953" fill="#ffffff"></path></svg>